<mxfile host="app.diagrams.net" modified="2023-12-08T08:54:20.590Z" agent="Mozilla/5.0 (Windows NT 10.0; Win64; x64) AppleWebKit/537.36 (KHTML, like Gecko) Chrome/120.0.0.0 Safari/537.36" etag="mSaTUY09K46pejJKu-0B" version="22.1.7" type="device">
  <diagram name="Page-1" id="gQdVk8PihYqI_hnqAj_U">
    <mxGraphModel dx="1050" dy="557" grid="1" gridSize="10" guides="1" tooltips="1" connect="1" arrows="1" fold="1" page="1" pageScale="1" pageWidth="850" pageHeight="1100" math="0" shadow="0">
      <root>
        <mxCell id="0" />
        <mxCell id="1" parent="0" />
        <mxCell id="CZvEDdOTW9fp9gL54GHo-1" value="" style="ellipse;whiteSpace=wrap;html=1;fillColor=#fa6800;fontColor=#000000;strokeColor=#C73500;" vertex="1" parent="1">
          <mxGeometry x="230" y="190" width="360" height="360" as="geometry" />
        </mxCell>
        <mxCell id="CZvEDdOTW9fp9gL54GHo-2" value="&lt;b&gt;Final Boss&#39; Lair&lt;/b&gt;" style="text;html=1;strokeColor=none;fillColor=none;align=center;verticalAlign=middle;whiteSpace=wrap;rounded=0;" vertex="1" parent="1">
          <mxGeometry x="370" y="215" width="60" height="30" as="geometry" />
        </mxCell>
        <mxCell id="CZvEDdOTW9fp9gL54GHo-3" value="Actor" style="shape=umlActor;verticalLabelPosition=bottom;verticalAlign=top;html=1;outlineConnect=0;" vertex="1" parent="1">
          <mxGeometry x="600" y="100" width="30" height="60" as="geometry" />
        </mxCell>
        <mxCell id="CZvEDdOTW9fp9gL54GHo-4" value="Actor" style="shape=umlActor;verticalLabelPosition=bottom;verticalAlign=top;html=1;outlineConnect=0;" vertex="1" parent="1">
          <mxGeometry x="100" y="430" width="30" height="60" as="geometry" />
        </mxCell>
        <mxCell id="CZvEDdOTW9fp9gL54GHo-5" value="Actor" style="shape=umlActor;verticalLabelPosition=bottom;verticalAlign=top;html=1;outlineConnect=0;" vertex="1" parent="1">
          <mxGeometry x="710" y="245" width="30" height="60" as="geometry" />
        </mxCell>
        <mxCell id="CZvEDdOTW9fp9gL54GHo-6" value="&lt;b&gt;Enemies&lt;/b&gt;" style="text;html=1;strokeColor=none;fillColor=none;align=center;verticalAlign=middle;whiteSpace=wrap;rounded=0;" vertex="1" parent="1">
          <mxGeometry x="100" y="330" width="60" height="30" as="geometry" />
        </mxCell>
        <mxCell id="CZvEDdOTW9fp9gL54GHo-8" value="Actor" style="shape=umlActor;verticalLabelPosition=bottom;verticalAlign=top;html=1;outlineConnect=0;" vertex="1" parent="1">
          <mxGeometry x="395" y="330" width="30" height="60" as="geometry" />
        </mxCell>
        <mxCell id="CZvEDdOTW9fp9gL54GHo-9" value="Actor" style="shape=umlActor;verticalLabelPosition=bottom;verticalAlign=top;html=1;outlineConnect=0;" vertex="1" parent="1">
          <mxGeometry x="620" y="220" width="30" height="60" as="geometry" />
        </mxCell>
        <mxCell id="CZvEDdOTW9fp9gL54GHo-10" value="Actor" style="shape=umlActor;verticalLabelPosition=bottom;verticalAlign=top;html=1;outlineConnect=0;" vertex="1" parent="1">
          <mxGeometry x="450" y="570" width="30" height="60" as="geometry" />
        </mxCell>
        <mxCell id="CZvEDdOTW9fp9gL54GHo-11" value="Actor" style="shape=umlActor;verticalLabelPosition=bottom;verticalAlign=top;html=1;outlineConnect=0;" vertex="1" parent="1">
          <mxGeometry x="550" y="560" width="30" height="60" as="geometry" />
        </mxCell>
        <mxCell id="CZvEDdOTW9fp9gL54GHo-12" value="Actor" style="shape=umlActor;verticalLabelPosition=bottom;verticalAlign=top;html=1;outlineConnect=0;" vertex="1" parent="1">
          <mxGeometry x="690" y="430" width="30" height="60" as="geometry" />
        </mxCell>
        <mxCell id="CZvEDdOTW9fp9gL54GHo-13" value="Actor" style="shape=umlActor;verticalLabelPosition=bottom;verticalAlign=top;html=1;outlineConnect=0;" vertex="1" parent="1">
          <mxGeometry x="500" y="90" width="30" height="60" as="geometry" />
        </mxCell>
        <mxCell id="CZvEDdOTW9fp9gL54GHo-14" value="Actor" style="shape=umlActor;verticalLabelPosition=bottom;verticalAlign=top;html=1;outlineConnect=0;" vertex="1" parent="1">
          <mxGeometry x="130" y="160" width="30" height="60" as="geometry" />
        </mxCell>
        <mxCell id="CZvEDdOTW9fp9gL54GHo-16" value="Actor" style="shape=umlActor;verticalLabelPosition=bottom;verticalAlign=top;html=1;outlineConnect=0;" vertex="1" parent="1">
          <mxGeometry x="340" y="580" width="30" height="60" as="geometry" />
        </mxCell>
        <mxCell id="CZvEDdOTW9fp9gL54GHo-17" value="Actor" style="shape=umlActor;verticalLabelPosition=bottom;verticalAlign=top;html=1;outlineConnect=0;" vertex="1" parent="1">
          <mxGeometry x="210" y="530" width="30" height="60" as="geometry" />
        </mxCell>
        <mxCell id="CZvEDdOTW9fp9gL54GHo-18" value="Actor" style="shape=umlActor;verticalLabelPosition=bottom;verticalAlign=top;html=1;outlineConnect=0;" vertex="1" parent="1">
          <mxGeometry x="410" y="90" width="30" height="60" as="geometry" />
        </mxCell>
        <mxCell id="CZvEDdOTW9fp9gL54GHo-19" value="Actor" style="shape=umlActor;verticalLabelPosition=bottom;verticalAlign=top;html=1;outlineConnect=0;" vertex="1" parent="1">
          <mxGeometry x="310" y="100" width="30" height="60" as="geometry" />
        </mxCell>
        <mxCell id="CZvEDdOTW9fp9gL54GHo-20" value="Actor" style="shape=umlActor;verticalLabelPosition=bottom;verticalAlign=top;html=1;outlineConnect=0;" vertex="1" parent="1">
          <mxGeometry x="220" y="150" width="30" height="60" as="geometry" />
        </mxCell>
        <mxCell id="CZvEDdOTW9fp9gL54GHo-21" value="&lt;b&gt;Final Boss&lt;/b&gt;" style="text;html=1;strokeColor=none;fillColor=none;align=center;verticalAlign=middle;whiteSpace=wrap;rounded=0;" vertex="1" parent="1">
          <mxGeometry x="380" y="430" width="60" height="30" as="geometry" />
        </mxCell>
      </root>
    </mxGraphModel>
  </diagram>
</mxfile>
